<svg width="643" height="213" viewBox="0 0 643 213" fill="none" xmlns="http://www.w3.org/2000/svg">
<path d="M0.541504 20.5781C0.541504 9.53243 9.49581 0.578125 20.5415 0.578125H623C634.046 0.578125 643 9.53243 643 20.5781V192.578C643 203.624 634.046 212.578 623 212.578H20.5415C9.49578 212.578 0.541504 203.624 0.541504 192.578V20.5781Z" fill="white" fill-opacity="0.15"/>
<g clip-path="url(#clip0_1_253)">
<path d="M69.9234 49.7203L54.4188 35.5781L38.9141 49.7203L54.4188 63.8624L69.9234 49.7203Z" fill="#57B8FF"/>
<path d="M66.8225 49.72L54.4188 38.4062L42.015 49.72L54.4188 61.0337L66.8225 49.72Z" fill="white"/>
<path d="M62.1711 49.7205L54.4188 42.6494L46.6664 49.7205L54.4188 56.7915L62.1711 49.7205Z" fill="#57B8FF"/>
</g>
<path d="M96.3851 117.578L88.8791 104.618H90.5891L97.2311 116.156L103.855 104.618H105.565L98.0771 117.578H96.3851ZM107.238 117.578V107.138H108.714V117.578H107.238ZM107.238 105.194V103.718H108.714V105.194H107.238ZM116.096 117.578L110.336 107.138H112.064L116.96 116.138L121.856 107.138H123.584L117.806 117.578H116.096ZM127.293 117.578C126.897 117.578 126.531 117.482 126.195 117.29C125.871 117.086 125.607 116.822 125.403 116.498C125.211 116.162 125.115 115.796 125.115 115.4V111.62H134.259V109.316C134.259 109.124 134.187 108.962 134.043 108.83C133.911 108.686 133.749 108.614 133.557 108.614H125.115V107.138H133.557C133.965 107.138 134.331 107.24 134.655 107.444C134.991 107.636 135.255 107.9 135.447 108.236C135.651 108.56 135.753 108.92 135.753 109.316V117.578H127.293ZM127.293 116.102H134.259V113.096H126.591V115.4C126.591 115.592 126.657 115.76 126.789 115.904C126.933 116.036 127.101 116.102 127.293 116.102ZM137.297 117.578V107.138H151.085C151.493 107.138 151.859 107.24 152.183 107.444C152.519 107.636 152.783 107.9 152.975 108.236C153.167 108.56 153.263 108.92 153.263 109.316V117.578H151.805V109.316C151.805 109.124 151.733 108.962 151.589 108.83C151.445 108.686 151.277 108.614 151.085 108.614H146.747C146.555 108.614 146.387 108.686 146.243 108.83C146.111 108.962 146.045 109.124 146.045 109.316V117.578H144.551V109.316C144.551 109.124 144.479 108.962 144.335 108.83C144.203 108.686 144.041 108.614 143.849 108.614H139.493C139.301 108.614 139.133 108.686 138.989 108.83C138.857 108.962 138.791 109.124 138.791 109.316V117.578H137.297ZM157.053 117.578C156.657 117.578 156.291 117.482 155.955 117.29C155.631 117.086 155.367 116.822 155.163 116.498C154.971 116.162 154.875 115.796 154.875 115.4V107.138H156.351V115.4C156.351 115.592 156.417 115.76 156.549 115.904C156.693 116.036 156.861 116.102 157.053 116.102H163.317C163.509 116.102 163.677 116.036 163.821 115.904C163.965 115.76 164.037 115.592 164.037 115.4V107.138H165.513V115.4C165.513 115.796 165.411 116.162 165.207 116.498C165.015 116.822 164.751 117.086 164.415 117.29C164.091 117.482 163.725 117.578 163.317 117.578H157.053ZM169.215 117.578C168.819 117.578 168.453 117.482 168.117 117.29C167.793 117.086 167.529 116.822 167.325 116.498C167.133 116.162 167.037 115.796 167.037 115.4V115.256H168.513V115.4C168.513 115.592 168.579 115.76 168.711 115.904C168.855 116.036 169.023 116.102 169.215 116.102H175.479C175.671 116.102 175.833 116.036 175.965 115.904C176.109 115.76 176.181 115.592 176.181 115.4V113.798C176.181 113.606 176.109 113.444 175.965 113.312C175.833 113.168 175.671 113.096 175.479 113.096H169.215C168.819 113.096 168.453 113 168.117 112.808C167.793 112.604 167.529 112.34 167.325 112.016C167.133 111.68 167.037 111.314 167.037 110.918V109.316C167.037 108.92 167.133 108.56 167.325 108.236C167.529 107.9 167.793 107.636 168.117 107.444C168.453 107.24 168.819 107.138 169.215 107.138H175.479C175.887 107.138 176.253 107.24 176.577 107.444C176.913 107.636 177.177 107.9 177.369 108.236C177.573 108.56 177.675 108.92 177.675 109.316V109.46H176.181V109.316C176.181 109.124 176.109 108.962 175.965 108.83C175.833 108.686 175.671 108.614 175.479 108.614H169.215C169.023 108.614 168.855 108.686 168.711 108.83C168.579 108.962 168.513 109.124 168.513 109.316V110.918C168.513 111.11 168.579 111.278 168.711 111.422C168.855 111.554 169.023 111.62 169.215 111.62H175.479C175.887 111.62 176.253 111.722 176.577 111.926C176.913 112.118 177.177 112.382 177.369 112.718C177.573 113.042 177.675 113.402 177.675 113.798V115.4C177.675 115.796 177.573 116.162 177.369 116.498C177.177 116.822 176.913 117.086 176.577 117.29C176.253 117.482 175.887 117.578 175.479 117.578H169.215ZM184.389 117.578V107.138H198.177C198.585 107.138 198.951 107.24 199.275 107.444C199.611 107.636 199.875 107.9 200.067 108.236C200.259 108.56 200.355 108.92 200.355 109.316V117.578H198.897V109.316C198.897 109.124 198.825 108.962 198.681 108.83C198.537 108.686 198.369 108.614 198.177 108.614H193.839C193.647 108.614 193.479 108.686 193.335 108.83C193.203 108.962 193.137 109.124 193.137 109.316V117.578H191.643V109.316C191.643 109.124 191.571 108.962 191.427 108.83C191.295 108.686 191.133 108.614 190.941 108.614H186.585C186.393 108.614 186.225 108.686 186.081 108.83C185.949 108.962 185.883 109.124 185.883 109.316V117.578H184.389ZM204.127 117.578C203.731 117.578 203.365 117.482 203.029 117.29C202.705 117.086 202.441 116.822 202.237 116.498C202.045 116.162 201.949 115.796 201.949 115.4V111.62H211.093V109.316C211.093 109.124 211.021 108.962 210.877 108.83C210.745 108.686 210.583 108.614 210.391 108.614H201.949V107.138H210.391C210.799 107.138 211.165 107.24 211.489 107.444C211.825 107.636 212.089 107.9 212.281 108.236C212.485 108.56 212.587 108.92 212.587 109.316V117.578H204.127ZM204.127 116.102H211.093V113.096H203.425V115.4C203.425 115.592 203.491 115.76 203.623 115.904C203.767 116.036 203.935 116.102 204.127 116.102ZM216.175 121.7V120.206H222.691C222.883 120.206 223.045 120.134 223.177 119.99C223.321 119.858 223.393 119.696 223.393 119.504V117.578H216.427C216.031 117.578 215.665 117.482 215.329 117.29C215.005 117.086 214.741 116.822 214.537 116.498C214.345 116.162 214.249 115.796 214.249 115.4V109.316C214.249 108.92 214.345 108.56 214.537 108.236C214.741 107.9 215.005 107.636 215.329 107.444C215.665 107.24 216.031 107.138 216.427 107.138H222.691C223.099 107.138 223.465 107.24 223.789 107.444C224.125 107.636 224.389 107.9 224.581 108.236C224.773 108.56 224.869 108.92 224.869 109.316V119.504C224.869 119.912 224.773 120.278 224.581 120.602C224.389 120.938 224.125 121.202 223.789 121.394C223.465 121.598 223.099 121.7 222.691 121.7H216.175ZM216.427 116.102H222.691C222.883 116.102 223.045 116.036 223.177 115.904C223.321 115.76 223.393 115.592 223.393 115.4V109.316C223.393 109.124 223.321 108.962 223.177 108.83C223.045 108.686 222.883 108.614 222.691 108.614H216.427C216.235 108.614 216.067 108.686 215.923 108.83C215.791 108.962 215.725 109.124 215.725 109.316V115.4C215.725 115.592 215.791 115.76 215.923 115.904C216.067 116.036 216.235 116.102 216.427 116.102ZM226.77 117.578V107.138H235.23C235.626 107.138 235.986 107.24 236.31 107.444C236.646 107.636 236.91 107.9 237.102 108.236C237.306 108.56 237.408 108.92 237.408 109.316V117.578H235.932V109.316C235.932 109.124 235.86 108.962 235.716 108.83C235.584 108.686 235.422 108.614 235.23 108.614H228.966C228.774 108.614 228.606 108.686 228.462 108.83C228.318 108.962 228.246 109.124 228.246 109.316V117.578H226.77ZM241.445 117.578C241.049 117.578 240.683 117.482 240.347 117.29C240.023 117.086 239.759 116.822 239.555 116.498C239.363 116.162 239.267 115.796 239.267 115.4V111.62H248.411V109.316C248.411 109.124 248.339 108.962 248.195 108.83C248.063 108.686 247.901 108.614 247.709 108.614H239.267V107.138H247.709C248.117 107.138 248.483 107.24 248.807 107.444C249.143 107.636 249.407 107.9 249.599 108.236C249.803 108.56 249.905 108.92 249.905 109.316V117.578H241.445ZM241.445 116.102H248.411V113.096H240.743V115.4C240.743 115.592 240.809 115.76 240.941 115.904C241.085 116.036 241.253 116.102 241.445 116.102ZM252.368 121.952V120.458H256.778C256.97 120.458 257.132 120.386 257.264 120.242C257.408 120.11 257.48 119.948 257.48 119.756V107.138H258.974V119.756C258.974 120.164 258.872 120.53 258.668 120.854C258.476 121.19 258.212 121.454 257.876 121.646C257.552 121.85 257.186 121.952 256.778 121.952H252.368ZM257.48 105.194V103.718H258.974V105.194H257.48ZM263.172 117.578C262.776 117.578 262.41 117.482 262.074 117.29C261.75 117.086 261.486 116.822 261.282 116.498C261.09 116.162 260.994 115.796 260.994 115.4V107.138H262.47V115.4C262.47 115.592 262.536 115.76 262.668 115.904C262.812 116.036 262.98 116.102 263.172 116.102H269.436C269.628 116.102 269.796 116.036 269.94 115.904C270.084 115.76 270.156 115.592 270.156 115.4V107.138H271.632V115.4C271.632 115.796 271.53 116.162 271.326 116.498C271.134 116.822 270.87 117.086 270.534 117.29C270.21 117.482 269.844 117.578 269.436 117.578H263.172ZM275.334 117.578C274.938 117.578 274.572 117.482 274.236 117.29C273.912 117.086 273.648 116.822 273.444 116.498C273.252 116.162 273.156 115.796 273.156 115.4V115.256H274.632V115.4C274.632 115.592 274.698 115.76 274.83 115.904C274.974 116.036 275.142 116.102 275.334 116.102H281.598C281.79 116.102 281.952 116.036 282.084 115.904C282.228 115.76 282.3 115.592 282.3 115.4V113.798C282.3 113.606 282.228 113.444 282.084 113.312C281.952 113.168 281.79 113.096 281.598 113.096H275.334C274.938 113.096 274.572 113 274.236 112.808C273.912 112.604 273.648 112.34 273.444 112.016C273.252 111.68 273.156 111.314 273.156 110.918V109.316C273.156 108.92 273.252 108.56 273.444 108.236C273.648 107.9 273.912 107.636 274.236 107.444C274.572 107.24 274.938 107.138 275.334 107.138H281.598C282.006 107.138 282.372 107.24 282.696 107.444C283.032 107.636 283.296 107.9 283.488 108.236C283.692 108.56 283.794 108.92 283.794 109.316V109.46H282.3V109.316C282.3 109.124 282.228 108.962 282.084 108.83C281.952 108.686 281.79 108.614 281.598 108.614H275.334C275.142 108.614 274.974 108.686 274.83 108.83C274.698 108.962 274.632 109.124 274.632 109.316V110.918C274.632 111.11 274.698 111.278 274.83 111.422C274.974 111.554 275.142 111.62 275.334 111.62H281.598C282.006 111.62 282.372 111.722 282.696 111.926C283.032 112.118 283.296 112.382 283.488 112.718C283.692 113.042 283.794 113.402 283.794 113.798V115.4C283.794 115.796 283.692 116.162 283.488 116.498C283.296 116.822 283.032 117.086 282.696 117.29C282.372 117.482 282.006 117.578 281.598 117.578H275.334ZM287.764 117.578C287.356 117.578 286.984 117.482 286.648 117.29C286.324 117.086 286.066 116.822 285.874 116.498C285.682 116.162 285.586 115.796 285.586 115.4V103.718H287.062V107.138H291.58V108.614H287.062V115.4C287.062 115.592 287.128 115.76 287.26 115.904C287.404 116.036 287.572 116.102 287.764 116.102H291.58V117.578H287.764ZM295.111 117.578C294.715 117.578 294.349 117.482 294.013 117.29C293.689 117.086 293.425 116.822 293.221 116.498C293.029 116.162 292.933 115.796 292.933 115.4V109.316C292.933 108.92 293.029 108.56 293.221 108.236C293.425 107.9 293.689 107.636 294.013 107.444C294.349 107.24 294.715 107.138 295.111 107.138H301.375C301.783 107.138 302.149 107.24 302.473 107.444C302.809 107.636 303.073 107.9 303.265 108.236C303.469 108.56 303.571 108.92 303.571 109.316V115.4C303.571 115.796 303.469 116.162 303.265 116.498C303.073 116.822 302.809 117.086 302.473 117.29C302.149 117.482 301.783 117.578 301.375 117.578H295.111ZM295.111 116.102H301.375C301.567 116.102 301.729 116.036 301.861 115.904C302.005 115.76 302.077 115.592 302.077 115.4V109.316C302.077 109.124 302.005 108.962 301.861 108.83C301.729 108.686 301.567 108.614 301.375 108.614H295.111C294.919 108.614 294.751 108.686 294.607 108.83C294.475 108.962 294.409 109.124 294.409 109.316V115.4C294.409 115.592 294.475 115.76 294.607 115.904C294.751 116.036 294.919 116.102 295.111 116.102ZM305.45 119.936V116.102H306.926V117.866C306.926 118.19 306.86 118.49 306.728 118.766C306.608 119.042 306.434 119.282 306.206 119.486C305.99 119.69 305.738 119.84 305.45 119.936ZM315.976 117.578C315.58 117.578 315.214 117.482 314.878 117.29C314.554 117.086 314.29 116.822 314.086 116.498C313.894 116.162 313.798 115.796 313.798 115.4V103.718H315.274V115.4C315.274 115.592 315.34 115.76 315.472 115.904C315.616 116.036 315.784 116.102 315.976 116.102H317.74V117.578H315.976ZM321.232 117.578C320.836 117.578 320.47 117.482 320.134 117.29C319.81 117.086 319.546 116.822 319.342 116.498C319.15 116.162 319.054 115.796 319.054 115.4V111.62H328.198V109.316C328.198 109.124 328.126 108.962 327.982 108.83C327.85 108.686 327.688 108.614 327.496 108.614H319.054V107.138H327.496C327.904 107.138 328.27 107.24 328.594 107.444C328.93 107.636 329.194 107.9 329.386 108.236C329.59 108.56 329.692 108.92 329.692 109.316V117.578H321.232ZM321.232 116.102H328.198V113.096H320.53V115.4C320.53 115.592 320.596 115.76 320.728 115.904C320.872 116.036 321.04 116.102 321.232 116.102ZM333.537 117.578C333.141 117.578 332.775 117.482 332.439 117.29C332.115 117.086 331.851 116.822 331.647 116.498C331.455 116.162 331.359 115.796 331.359 115.4V109.316C331.359 108.92 331.455 108.56 331.647 108.236C331.851 107.9 332.115 107.636 332.439 107.444C332.775 107.24 333.141 107.138 333.537 107.138H341.961V108.614H333.537C333.345 108.614 333.177 108.686 333.033 108.83C332.901 108.962 332.835 109.124 332.835 109.316V115.4C332.835 115.592 332.901 115.76 333.033 115.904C333.177 116.036 333.345 116.102 333.537 116.102H341.997V117.578H333.537ZM343.892 117.578V107.138H345.368V117.578H343.892ZM343.892 105.194V103.718H345.368V105.194H343.892ZM347.409 117.578V107.138H355.869C356.265 107.138 356.625 107.24 356.949 107.444C357.285 107.636 357.549 107.9 357.741 108.236C357.945 108.56 358.047 108.92 358.047 109.316V117.578H356.571V109.316C356.571 109.124 356.499 108.962 356.355 108.83C356.223 108.686 356.061 108.614 355.869 108.614H349.605C349.413 108.614 349.245 108.686 349.101 108.83C348.957 108.962 348.885 109.124 348.885 109.316V117.578H347.409ZM359.906 117.578V107.138H361.382V117.578H359.906ZM359.906 105.194V103.718H361.382V105.194H359.906ZM365.195 117.578C364.799 117.578 364.433 117.482 364.097 117.29C363.773 117.086 363.509 116.822 363.305 116.498C363.113 116.162 363.017 115.796 363.017 115.4V111.62H372.161V109.316C372.161 109.124 372.089 108.962 371.945 108.83C371.813 108.686 371.651 108.614 371.459 108.614H363.017V107.138H371.459C371.867 107.138 372.233 107.24 372.557 107.444C372.893 107.636 373.157 107.9 373.349 108.236C373.553 108.56 373.655 108.92 373.655 109.316V117.578H365.195ZM365.195 116.102H372.161V113.096H364.493V115.4C364.493 115.592 364.559 115.76 364.691 115.904C364.835 116.036 365.003 116.102 365.195 116.102ZM382.58 117.578C382.184 117.578 381.818 117.482 381.482 117.29C381.158 117.086 380.894 116.822 380.69 116.498C380.498 116.162 380.402 115.796 380.402 115.4V109.316C380.402 108.92 380.498 108.56 380.69 108.236C380.894 107.9 381.158 107.636 381.482 107.444C381.818 107.24 382.184 107.138 382.58 107.138H388.844C389.252 107.138 389.618 107.24 389.942 107.444C390.278 107.636 390.542 107.9 390.734 108.236C390.938 108.56 391.04 108.92 391.04 109.316V113.096H381.878V115.4C381.878 115.592 381.944 115.76 382.076 115.904C382.22 116.036 382.388 116.102 382.58 116.102H391.04V117.578H382.58ZM381.878 111.62H389.546V109.316C389.546 109.124 389.474 108.962 389.33 108.83C389.198 108.686 389.036 108.614 388.844 108.614H382.58C382.388 108.614 382.22 108.686 382.076 108.83C381.944 108.962 381.878 109.124 381.878 109.316V111.62ZM394.61 121.7V120.206H401.126C401.318 120.206 401.48 120.134 401.612 119.99C401.756 119.858 401.828 119.696 401.828 119.504V117.578H394.862C394.466 117.578 394.1 117.482 393.764 117.29C393.44 117.086 393.176 116.822 392.972 116.498C392.78 116.162 392.684 115.796 392.684 115.4V109.316C392.684 108.92 392.78 108.56 392.972 108.236C393.176 107.9 393.44 107.636 393.764 107.444C394.1 107.24 394.466 107.138 394.862 107.138H401.126C401.534 107.138 401.9 107.24 402.224 107.444C402.56 107.636 402.824 107.9 403.016 108.236C403.208 108.56 403.304 108.92 403.304 109.316V119.504C403.304 119.912 403.208 120.278 403.016 120.602C402.824 120.938 402.56 121.202 402.224 121.394C401.9 121.598 401.534 121.7 401.126 121.7H394.61ZM394.862 116.102H401.126C401.318 116.102 401.48 116.036 401.612 115.904C401.756 115.76 401.828 115.592 401.828 115.4V109.316C401.828 109.124 401.756 108.962 401.612 108.83C401.48 108.686 401.318 108.614 401.126 108.614H394.862C394.67 108.614 394.502 108.686 394.358 108.83C394.226 108.962 394.16 109.124 394.16 109.316V115.4C394.16 115.592 394.226 115.76 394.358 115.904C394.502 116.036 394.67 116.102 394.862 116.102ZM407.066 117.578C406.67 117.578 406.304 117.482 405.968 117.29C405.644 117.086 405.38 116.822 405.176 116.498C404.984 116.162 404.888 115.796 404.888 115.4V109.316C404.888 108.92 404.984 108.56 405.176 108.236C405.38 107.9 405.644 107.636 405.968 107.444C406.304 107.24 406.67 107.138 407.066 107.138H413.33C413.738 107.138 414.104 107.24 414.428 107.444C414.764 107.636 415.028 107.9 415.22 108.236C415.424 108.56 415.526 108.92 415.526 109.316V113.096H406.364V115.4C406.364 115.592 406.43 115.76 406.562 115.904C406.706 116.036 406.874 116.102 407.066 116.102H415.526V117.578H407.066ZM406.364 111.62H414.032V109.316C414.032 109.124 413.96 108.962 413.816 108.83C413.684 108.686 413.522 108.614 413.33 108.614H407.066C406.874 108.614 406.706 108.686 406.562 108.83C406.43 108.962 406.364 109.124 406.364 109.316V111.62ZM419.565 117.578C419.157 117.578 418.785 117.482 418.449 117.29C418.125 117.086 417.867 116.822 417.675 116.498C417.483 116.162 417.387 115.796 417.387 115.4V103.718H418.863V107.138H423.381V108.614H418.863V115.4C418.863 115.592 418.929 115.76 419.061 115.904C419.205 116.036 419.373 116.102 419.565 116.102H423.381V117.578H419.565ZM431.816 117.578C431.42 117.578 431.054 117.482 430.718 117.29C430.394 117.086 430.13 116.822 429.926 116.498C429.734 116.162 429.638 115.796 429.638 115.4V109.316C429.638 108.92 429.734 108.56 429.926 108.236C430.13 107.9 430.394 107.636 430.718 107.444C431.054 107.24 431.42 107.138 431.816 107.138H440.24V108.614H431.816C431.624 108.614 431.456 108.686 431.312 108.83C431.18 108.962 431.114 109.124 431.114 109.316V115.4C431.114 115.592 431.18 115.76 431.312 115.904C431.456 116.036 431.624 116.102 431.816 116.102H440.276V117.578H431.816ZM444.331 117.578C443.935 117.578 443.569 117.482 443.233 117.29C442.909 117.086 442.645 116.822 442.441 116.498C442.249 116.162 442.153 115.796 442.153 115.4V109.316C442.153 108.92 442.249 108.56 442.441 108.236C442.645 107.9 442.909 107.636 443.233 107.444C443.569 107.24 443.935 107.138 444.331 107.138H450.595C451.003 107.138 451.369 107.24 451.693 107.444C452.029 107.636 452.293 107.9 452.485 108.236C452.689 108.56 452.791 108.92 452.791 109.316V115.4C452.791 115.796 452.689 116.162 452.485 116.498C452.293 116.822 452.029 117.086 451.693 117.29C451.369 117.482 451.003 117.578 450.595 117.578H444.331ZM444.331 116.102H450.595C450.787 116.102 450.949 116.036 451.081 115.904C451.225 115.76 451.297 115.592 451.297 115.4V109.316C451.297 109.124 451.225 108.962 451.081 108.83C450.949 108.686 450.787 108.614 450.595 108.614H444.331C444.139 108.614 443.971 108.686 443.827 108.83C443.695 108.962 443.629 109.124 443.629 109.316V115.4C443.629 115.592 443.695 115.76 443.827 115.904C443.971 116.036 444.139 116.102 444.331 116.102ZM456.794 117.578C456.398 117.578 456.032 117.482 455.696 117.29C455.372 117.086 455.108 116.822 454.904 116.498C454.712 116.162 454.616 115.796 454.616 115.4V109.316C454.616 108.92 454.712 108.56 454.904 108.236C455.108 107.9 455.372 107.636 455.696 107.444C456.032 107.24 456.398 107.138 456.794 107.138H463.058C463.466 107.138 463.832 107.24 464.156 107.444C464.492 107.636 464.756 107.9 464.948 108.236C465.152 108.56 465.254 108.92 465.254 109.316V113.096H456.092V115.4C456.092 115.592 456.158 115.76 456.29 115.904C456.434 116.036 456.602 116.102 456.794 116.102H465.254V117.578H456.794ZM456.092 111.62H463.76V109.316C463.76 109.124 463.688 108.962 463.544 108.83C463.412 108.686 463.25 108.614 463.058 108.614H456.794C456.602 108.614 456.434 108.686 456.29 108.83C456.158 108.962 456.092 109.124 456.092 109.316V111.62ZM468.906 117.578C468.51 117.578 468.144 117.482 467.808 117.29C467.484 117.086 467.22 116.822 467.016 116.498C466.824 116.162 466.728 115.796 466.728 115.4V109.316C466.728 108.92 466.824 108.56 467.016 108.236C467.22 107.9 467.484 107.636 467.808 107.444C468.144 107.24 468.51 107.138 468.906 107.138H477.33V108.614H468.906C468.714 108.614 468.546 108.686 468.402 108.83C468.27 108.962 468.204 109.124 468.204 109.316V115.4C468.204 115.592 468.27 115.76 468.402 115.904C468.546 116.036 468.714 116.102 468.906 116.102H477.366V117.578H468.906ZM480.964 117.578C480.568 117.578 480.202 117.482 479.866 117.29C479.542 117.086 479.278 116.822 479.074 116.498C478.882 116.162 478.786 115.796 478.786 115.4V109.316C478.786 108.92 478.882 108.56 479.074 108.236C479.278 107.9 479.542 107.636 479.866 107.444C480.202 107.24 480.568 107.138 480.964 107.138H487.228C487.636 107.138 488.002 107.24 488.326 107.444C488.662 107.636 488.926 107.9 489.118 108.236C489.322 108.56 489.424 108.92 489.424 109.316V113.096H480.262V115.4C480.262 115.592 480.328 115.76 480.46 115.904C480.604 116.036 480.772 116.102 480.964 116.102H489.424V117.578H480.964ZM480.262 111.62H487.93V109.316C487.93 109.124 487.858 108.962 487.714 108.83C487.582 108.686 487.42 108.614 487.228 108.614H480.964C480.772 108.614 480.604 108.686 480.46 108.83C480.328 108.962 480.262 109.124 480.262 109.316V111.62ZM493.463 117.578C493.055 117.578 492.683 117.482 492.347 117.29C492.023 117.086 491.765 116.822 491.573 116.498C491.381 116.162 491.285 115.796 491.285 115.4V103.718H492.761V107.138H497.279V108.614H492.761V115.4C492.761 115.592 492.827 115.76 492.959 115.904C493.103 116.036 493.271 116.102 493.463 116.102H497.279V117.578H493.463ZM500.846 117.578C500.45 117.578 500.084 117.482 499.748 117.29C499.424 117.086 499.16 116.822 498.956 116.498C498.764 116.162 498.668 115.796 498.668 115.4V107.138H500.144V115.4C500.144 115.592 500.21 115.76 500.342 115.904C500.486 116.036 500.654 116.102 500.846 116.102H507.11C507.302 116.102 507.47 116.036 507.614 115.904C507.758 115.76 507.83 115.592 507.83 115.4V107.138H509.306V115.4C509.306 115.796 509.204 116.162 509 116.498C508.808 116.822 508.544 117.086 508.208 117.29C507.884 117.482 507.518 117.578 507.11 117.578H500.846ZM511.166 117.578V109.316C511.166 108.92 511.262 108.56 511.454 108.236C511.658 107.9 511.922 107.636 512.246 107.444C512.582 107.24 512.948 107.138 513.344 107.138H519.212V108.614H513.344C513.152 108.614 512.984 108.686 512.84 108.83C512.708 108.962 512.642 109.124 512.642 109.316V117.578H511.166ZM527.387 117.578C526.991 117.578 526.625 117.482 526.289 117.29C525.965 117.086 525.701 116.822 525.497 116.498C525.305 116.162 525.209 115.796 525.209 115.4V115.256H526.685V115.4C526.685 115.592 526.751 115.76 526.883 115.904C527.027 116.036 527.195 116.102 527.387 116.102H533.651C533.843 116.102 534.005 116.036 534.137 115.904C534.281 115.76 534.353 115.592 534.353 115.4V113.798C534.353 113.606 534.281 113.444 534.137 113.312C534.005 113.168 533.843 113.096 533.651 113.096H527.387C526.991 113.096 526.625 113 526.289 112.808C525.965 112.604 525.701 112.34 525.497 112.016C525.305 111.68 525.209 111.314 525.209 110.918V109.316C525.209 108.92 525.305 108.56 525.497 108.236C525.701 107.9 525.965 107.636 526.289 107.444C526.625 107.24 526.991 107.138 527.387 107.138H533.651C534.059 107.138 534.425 107.24 534.749 107.444C535.085 107.636 535.349 107.9 535.541 108.236C535.745 108.56 535.847 108.92 535.847 109.316V109.46H534.353V109.316C534.353 109.124 534.281 108.962 534.137 108.83C534.005 108.686 533.843 108.614 533.651 108.614H527.387C527.195 108.614 527.027 108.686 526.883 108.83C526.751 108.962 526.685 109.124 526.685 109.316V110.918C526.685 111.11 526.751 111.278 526.883 111.422C527.027 111.554 527.195 111.62 527.387 111.62H533.651C534.059 111.62 534.425 111.722 534.749 111.926C535.085 112.118 535.349 112.382 535.541 112.718C535.745 113.042 535.847 113.402 535.847 113.798V115.4C535.847 115.796 535.745 116.162 535.541 116.498C535.349 116.822 535.085 117.086 534.749 117.29C534.425 117.482 534.059 117.578 533.651 117.578H527.387ZM539.517 117.578C539.121 117.578 538.755 117.482 538.419 117.29C538.095 117.086 537.831 116.822 537.627 116.498C537.435 116.162 537.339 115.796 537.339 115.4V109.316C537.339 108.92 537.435 108.56 537.627 108.236C537.831 107.9 538.095 107.636 538.419 107.444C538.755 107.24 539.121 107.138 539.517 107.138H545.781C546.189 107.138 546.555 107.24 546.879 107.444C547.215 107.636 547.479 107.9 547.671 108.236C547.875 108.56 547.977 108.92 547.977 109.316V113.096H538.815V115.4C538.815 115.592 538.881 115.76 539.013 115.904C539.157 116.036 539.325 116.102 539.517 116.102H547.977V117.578H539.517ZM538.815 111.62H546.483V109.316C546.483 109.124 546.411 108.962 546.267 108.83C546.135 108.686 545.973 108.614 545.781 108.614H539.517C539.325 108.614 539.157 108.686 539.013 108.83C538.881 108.962 538.815 109.124 538.815 109.316V111.62ZM551.494 117.578C551.086 117.578 550.714 117.482 550.378 117.29C550.054 117.086 549.79 116.822 549.586 116.498C549.394 116.162 549.298 115.796 549.298 115.4V109.316C549.298 108.92 549.394 108.56 549.586 108.236C549.79 107.9 550.054 107.636 550.378 107.444C550.714 107.24 551.086 107.138 551.494 107.138H558.46V103.718H559.936V117.578H551.494ZM551.494 116.102H557.758C557.95 116.102 558.112 116.036 558.244 115.904C558.388 115.76 558.46 115.592 558.46 115.4V109.316C558.46 109.124 558.388 108.962 558.244 108.83C558.112 108.686 557.95 108.614 557.758 108.614H551.494C551.302 108.614 551.134 108.686 550.99 108.83C550.858 108.962 550.792 109.124 550.792 109.316V115.4C550.792 115.592 550.858 115.76 550.99 115.904C551.134 116.036 551.302 116.102 551.494 116.102ZM561.862 119.936V116.102H563.338V117.866C563.338 118.19 563.272 118.49 563.14 118.766C563.02 119.042 562.846 119.282 562.618 119.486C562.402 119.69 562.15 119.84 561.862 119.936ZM91.3451 145.578C90.9491 145.578 90.5831 145.482 90.2471 145.29C89.9231 145.086 89.6591 144.822 89.4551 144.498C89.2631 144.162 89.1671 143.796 89.1671 143.4V137.316C89.1671 136.92 89.2631 136.56 89.4551 136.236C89.6591 135.9 89.9231 135.636 90.2471 135.444C90.5831 135.24 90.9491 135.138 91.3451 135.138H99.7691V136.614H91.3451C91.1531 136.614 90.9851 136.686 90.8411 136.83C90.7091 136.962 90.6431 137.124 90.6431 137.316V143.4C90.6431 143.592 90.7091 143.76 90.8411 143.904C90.9851 144.036 91.1531 144.102 91.3451 144.102H99.8051V145.578H91.3451ZM103.861 145.578C103.465 145.578 103.099 145.482 102.763 145.29C102.439 145.086 102.175 144.822 101.971 144.498C101.779 144.162 101.683 143.796 101.683 143.4V137.316C101.683 136.92 101.779 136.56 101.971 136.236C102.175 135.9 102.439 135.636 102.763 135.444C103.099 135.24 103.465 135.138 103.861 135.138H110.125C110.533 135.138 110.899 135.24 111.223 135.444C111.559 135.636 111.823 135.9 112.015 136.236C112.219 136.56 112.321 136.92 112.321 137.316V143.4C112.321 143.796 112.219 144.162 112.015 144.498C111.823 144.822 111.559 145.086 111.223 145.29C110.899 145.482 110.533 145.578 110.125 145.578H103.861ZM103.861 144.102H110.125C110.317 144.102 110.479 144.036 110.611 143.904C110.755 143.76 110.827 143.592 110.827 143.4V137.316C110.827 137.124 110.755 136.962 110.611 136.83C110.479 136.686 110.317 136.614 110.125 136.614H103.861C103.669 136.614 103.501 136.686 103.357 136.83C103.225 136.962 103.159 137.124 103.159 137.316V143.4C103.159 143.592 103.225 143.76 103.357 143.904C103.501 144.036 103.669 144.102 103.861 144.102ZM113.936 145.578V135.138H122.396C122.792 135.138 123.152 135.24 123.476 135.444C123.812 135.636 124.076 135.9 124.268 136.236C124.472 136.56 124.574 136.92 124.574 137.316V145.578H123.098V137.316C123.098 137.124 123.026 136.962 122.882 136.83C122.75 136.686 122.588 136.614 122.396 136.614H116.132C115.94 136.614 115.772 136.686 115.628 136.83C115.484 136.962 115.412 137.124 115.412 137.316V145.578H113.936ZM131.635 145.578L125.875 135.138H127.603L132.499 144.138L137.395 135.138H139.123L133.345 145.578H131.635ZM142.832 145.578C142.436 145.578 142.07 145.482 141.734 145.29C141.41 145.086 141.146 144.822 140.942 144.498C140.75 144.162 140.654 143.796 140.654 143.4V139.62H149.798V137.316C149.798 137.124 149.726 136.962 149.582 136.83C149.45 136.686 149.288 136.614 149.096 136.614H140.654V135.138H149.096C149.504 135.138 149.87 135.24 150.194 135.444C150.53 135.636 150.794 135.9 150.986 136.236C151.19 136.56 151.292 136.92 151.292 137.316V145.578H142.832ZM142.832 144.102H149.798V141.096H142.13V143.4C142.13 143.592 142.196 143.76 142.328 143.904C142.472 144.036 142.64 144.102 142.832 144.102ZM155.154 145.578C154.758 145.578 154.392 145.482 154.056 145.29C153.732 145.086 153.468 144.822 153.264 144.498C153.072 144.162 152.976 143.796 152.976 143.4V131.718H154.452V143.4C154.452 143.592 154.518 143.76 154.65 143.904C154.794 144.036 154.962 144.102 155.154 144.102H156.918V145.578H155.154ZM160.586 145.578C160.19 145.578 159.824 145.482 159.488 145.29C159.164 145.086 158.9 144.822 158.696 144.498C158.504 144.162 158.408 143.796 158.408 143.4V131.718H159.884V143.4C159.884 143.592 159.95 143.76 160.082 143.904C160.226 144.036 160.394 144.102 160.586 144.102H162.35V145.578H160.586ZM163.839 145.578V135.138H165.315V145.578H163.839ZM163.839 133.194V131.718H165.315V133.194H163.839ZM169.69 145.578C169.294 145.578 168.928 145.482 168.592 145.29C168.268 145.086 168.004 144.822 167.8 144.498C167.608 144.162 167.512 143.796 167.512 143.4V143.256H168.988V143.4C168.988 143.592 169.054 143.76 169.186 143.904C169.33 144.036 169.498 144.102 169.69 144.102H175.954C176.146 144.102 176.308 144.036 176.44 143.904C176.584 143.76 176.656 143.592 176.656 143.4V141.798C176.656 141.606 176.584 141.444 176.44 141.312C176.308 141.168 176.146 141.096 175.954 141.096H169.69C169.294 141.096 168.928 141 168.592 140.808C168.268 140.604 168.004 140.34 167.8 140.016C167.608 139.68 167.512 139.314 167.512 138.918V137.316C167.512 136.92 167.608 136.56 167.8 136.236C168.004 135.9 168.268 135.636 168.592 135.444C168.928 135.24 169.294 135.138 169.69 135.138H175.954C176.362 135.138 176.728 135.24 177.052 135.444C177.388 135.636 177.652 135.9 177.844 136.236C178.048 136.56 178.15 136.92 178.15 137.316V137.46H176.656V137.316C176.656 137.124 176.584 136.962 176.44 136.83C176.308 136.686 176.146 136.614 175.954 136.614H169.69C169.498 136.614 169.33 136.686 169.186 136.83C169.054 136.962 168.988 137.124 168.988 137.316V138.918C168.988 139.11 169.054 139.278 169.186 139.422C169.33 139.554 169.498 139.62 169.69 139.62H175.954C176.362 139.62 176.728 139.722 177.052 139.926C177.388 140.118 177.652 140.382 177.844 140.718C178.048 141.042 178.15 141.402 178.15 141.798V143.4C178.15 143.796 178.048 144.162 177.844 144.498C177.652 144.822 177.388 145.086 177.052 145.29C176.728 145.482 176.362 145.578 175.954 145.578H169.69ZM187.006 145.578C186.61 145.578 186.244 145.482 185.908 145.29C185.584 145.086 185.32 144.822 185.116 144.498C184.924 144.162 184.828 143.796 184.828 143.4V139.62H193.972V137.316C193.972 137.124 193.9 136.962 193.756 136.83C193.624 136.686 193.462 136.614 193.27 136.614H184.828V135.138H193.27C193.678 135.138 194.044 135.24 194.368 135.444C194.704 135.636 194.968 135.9 195.16 136.236C195.364 136.56 195.466 136.92 195.466 137.316V145.578H187.006ZM187.006 144.102H193.972V141.096H186.304V143.4C186.304 143.592 186.37 143.76 186.502 143.904C186.646 144.036 186.814 144.102 187.006 144.102ZM199.522 145.578C199.114 145.578 198.742 145.482 198.406 145.29C198.082 145.086 197.824 144.822 197.632 144.498C197.44 144.162 197.344 143.796 197.344 143.4V131.718H198.82V135.138H203.338V136.614H198.82V143.4C198.82 143.592 198.886 143.76 199.018 143.904C199.162 144.036 199.33 144.102 199.522 144.102H203.338V145.578H199.522ZM211.809 145.578C211.401 145.578 211.029 145.482 210.693 145.29C210.369 145.086 210.111 144.822 209.919 144.498C209.727 144.162 209.631 143.796 209.631 143.4V131.718H211.107V135.138H215.625V136.614H211.107V143.4C211.107 143.592 211.173 143.76 211.305 143.904C211.449 144.036 211.617 144.102 211.809 144.102H215.625V145.578H211.809ZM219.156 145.578C218.76 145.578 218.394 145.482 218.058 145.29C217.734 145.086 217.47 144.822 217.266 144.498C217.074 144.162 216.978 143.796 216.978 143.4V137.316C216.978 136.92 217.074 136.56 217.266 136.236C217.47 135.9 217.734 135.636 218.058 135.444C218.394 135.24 218.76 135.138 219.156 135.138H225.42C225.828 135.138 226.194 135.24 226.518 135.444C226.854 135.636 227.118 135.9 227.31 136.236C227.514 136.56 227.616 136.92 227.616 137.316V141.096H218.454V143.4C218.454 143.592 218.52 143.76 218.652 143.904C218.796 144.036 218.964 144.102 219.156 144.102H227.616V145.578H219.156ZM218.454 139.62H226.122V137.316C226.122 137.124 226.05 136.962 225.906 136.83C225.774 136.686 225.612 136.614 225.42 136.614H219.156C218.964 136.614 218.796 136.686 218.652 136.83C218.52 136.962 218.454 137.124 218.454 137.316V139.62ZM231.285 145.578C230.889 145.578 230.523 145.482 230.187 145.29C229.863 145.086 229.599 144.822 229.395 144.498C229.203 144.162 229.107 143.796 229.107 143.4V131.718H230.583V143.4C230.583 143.592 230.649 143.76 230.781 143.904C230.925 144.036 231.093 144.102 231.285 144.102H233.049V145.578H231.285ZM236.717 145.578C236.321 145.578 235.955 145.482 235.619 145.29C235.295 145.086 235.031 144.822 234.827 144.498C234.635 144.162 234.539 143.796 234.539 143.4V131.718H236.015V143.4C236.015 143.592 236.081 143.76 236.213 143.904C236.357 144.036 236.525 144.102 236.717 144.102H238.481V145.578H236.717ZM242.166 145.578C241.77 145.578 241.404 145.482 241.068 145.29C240.744 145.086 240.48 144.822 240.276 144.498C240.084 144.162 239.988 143.796 239.988 143.4V135.138H241.464V143.4C241.464 143.592 241.53 143.76 241.662 143.904C241.806 144.036 241.974 144.102 242.166 144.102H248.43C248.622 144.102 248.79 144.036 248.934 143.904C249.078 143.76 249.15 143.592 249.15 143.4V135.138H250.626V143.4C250.626 143.796 250.524 144.162 250.32 144.498C250.128 144.822 249.864 145.086 249.528 145.29C249.204 145.482 248.838 145.578 248.43 145.578H242.166ZM254.328 145.578C253.932 145.578 253.566 145.482 253.23 145.29C252.906 145.086 252.642 144.822 252.438 144.498C252.246 144.162 252.15 143.796 252.15 143.4V143.256H253.626V143.4C253.626 143.592 253.692 143.76 253.824 143.904C253.968 144.036 254.136 144.102 254.328 144.102H260.592C260.784 144.102 260.946 144.036 261.078 143.904C261.222 143.76 261.294 143.592 261.294 143.4V141.798C261.294 141.606 261.222 141.444 261.078 141.312C260.946 141.168 260.784 141.096 260.592 141.096H254.328C253.932 141.096 253.566 141 253.23 140.808C252.906 140.604 252.642 140.34 252.438 140.016C252.246 139.68 252.15 139.314 252.15 138.918V137.316C252.15 136.92 252.246 136.56 252.438 136.236C252.642 135.9 252.906 135.636 253.23 135.444C253.566 135.24 253.932 135.138 254.328 135.138H260.592C261 135.138 261.366 135.24 261.69 135.444C262.026 135.636 262.29 135.9 262.482 136.236C262.686 136.56 262.788 136.92 262.788 137.316V137.46H261.294V137.316C261.294 137.124 261.222 136.962 261.078 136.83C260.946 136.686 260.784 136.614 260.592 136.614H254.328C254.136 136.614 253.968 136.686 253.824 136.83C253.692 136.962 253.626 137.124 253.626 137.316V138.918C253.626 139.11 253.692 139.278 253.824 139.422C253.968 139.554 254.136 139.62 254.328 139.62H260.592C261 139.62 261.366 139.722 261.69 139.926C262.026 140.118 262.29 140.382 262.482 140.718C262.686 141.042 262.788 141.402 262.788 141.798V143.4C262.788 143.796 262.686 144.162 262.482 144.498C262.29 144.822 262.026 145.086 261.69 145.29C261.366 145.482 261 145.578 260.592 145.578H254.328ZM264.598 145.578V144.102H266.074V145.578H264.598ZM275.548 145.578C275.152 145.578 274.786 145.482 274.45 145.29C274.126 145.098 273.868 144.84 273.676 144.516C273.484 144.18 273.388 143.814 273.388 143.418V134.778C273.388 134.382 273.484 134.022 273.676 133.698C273.868 133.362 274.126 133.098 274.45 132.906C274.786 132.714 275.152 132.618 275.548 132.618H286.312V134.076H275.548C275.356 134.076 275.188 134.148 275.044 134.292C274.912 134.424 274.846 134.586 274.846 134.778V143.418C274.846 143.61 274.912 143.778 275.044 143.922C275.188 144.054 275.356 144.12 275.548 144.12H286.312V145.578H275.548ZM290.313 145.578C289.917 145.578 289.551 145.482 289.215 145.29C288.891 145.086 288.627 144.822 288.423 144.498C288.231 144.162 288.135 143.796 288.135 143.4V135.138H289.611V143.4C289.611 143.592 289.677 143.76 289.809 143.904C289.953 144.036 290.121 144.102 290.313 144.102H296.577C296.769 144.102 296.937 144.036 297.081 143.904C297.225 143.76 297.297 143.592 297.297 143.4V135.138H298.773V143.4C298.773 143.796 298.671 144.162 298.467 144.498C298.275 144.822 298.011 145.086 297.675 145.29C297.351 145.482 296.985 145.578 296.577 145.578H290.313ZM300.632 145.578V137.316C300.632 136.92 300.728 136.56 300.92 136.236C301.124 135.9 301.388 135.636 301.712 135.444C302.048 135.24 302.414 135.138 302.81 135.138H308.678V136.614H302.81C302.618 136.614 302.45 136.686 302.306 136.83C302.174 136.962 302.108 137.124 302.108 137.316V145.578H300.632ZM312.021 145.578C311.625 145.578 311.259 145.482 310.923 145.29C310.599 145.086 310.335 144.822 310.131 144.498C309.939 144.162 309.843 143.796 309.843 143.4V139.62H318.987V137.316C318.987 137.124 318.915 136.962 318.771 136.83C318.639 136.686 318.477 136.614 318.285 136.614H309.843V135.138H318.285C318.693 135.138 319.059 135.24 319.383 135.444C319.719 135.636 319.983 135.9 320.175 136.236C320.379 136.56 320.481 136.92 320.481 137.316V145.578H312.021ZM312.021 144.102H318.987V141.096H311.319V143.4C311.319 143.592 311.385 143.76 311.517 143.904C311.661 144.036 311.829 144.102 312.021 144.102ZM321.92 145.578V131.718H323.396V135.138H330.38C330.776 135.138 331.136 135.24 331.46 135.444C331.796 135.636 332.06 135.9 332.252 136.236C332.456 136.56 332.558 136.92 332.558 137.316V143.4C332.558 143.796 332.456 144.162 332.252 144.498C332.06 144.822 331.796 145.086 331.46 145.29C331.136 145.482 330.776 145.578 330.38 145.578H321.92ZM324.116 144.102H330.38C330.572 144.102 330.734 144.036 330.866 143.904C331.01 143.76 331.082 143.592 331.082 143.4V137.316C331.082 137.124 331.01 136.962 330.866 136.83C330.734 136.686 330.572 136.614 330.38 136.614H324.116C323.924 136.614 323.756 136.686 323.612 136.83C323.468 136.962 323.396 137.124 323.396 137.316V143.4C323.396 143.592 323.468 143.76 323.612 143.904C323.756 144.036 323.924 144.102 324.116 144.102ZM333.89 145.578V135.138H335.366V145.578H333.89ZM333.89 133.194V131.718H335.366V133.194H333.89ZM339.83 145.578C339.422 145.578 339.05 145.482 338.714 145.29C338.39 145.086 338.132 144.822 337.94 144.498C337.748 144.162 337.652 143.796 337.652 143.4V131.718H339.128V135.138H343.646V136.614H339.128V143.4C339.128 143.592 339.194 143.76 339.326 143.904C339.47 144.036 339.638 144.102 339.83 144.102H343.646V145.578H339.83ZM347.213 145.578C346.817 145.578 346.451 145.482 346.115 145.29C345.791 145.086 345.527 144.822 345.323 144.498C345.131 144.162 345.035 143.796 345.035 143.4V135.138H346.511V143.4C346.511 143.592 346.577 143.76 346.709 143.904C346.853 144.036 347.021 144.102 347.213 144.102H353.477C353.669 144.102 353.837 144.036 353.981 143.904C354.125 143.76 354.197 143.592 354.197 143.4V135.138H355.673V143.4C355.673 143.796 355.571 144.162 355.367 144.498C355.175 144.822 354.911 145.086 354.575 145.29C354.251 145.482 353.885 145.578 353.477 145.578H347.213ZM357.533 145.578V137.316C357.533 136.92 357.629 136.56 357.821 136.236C358.025 135.9 358.289 135.636 358.613 135.444C358.949 135.24 359.315 135.138 359.711 135.138H365.579V136.614H359.711C359.519 136.614 359.351 136.686 359.207 136.83C359.075 136.962 359.009 137.124 359.009 137.316V145.578H357.533ZM371.684 145.578V135.138H380.144C380.54 135.138 380.9 135.24 381.224 135.444C381.56 135.636 381.824 135.9 382.016 136.236C382.22 136.56 382.322 136.92 382.322 137.316V145.578H380.846V137.316C380.846 137.124 380.774 136.962 380.63 136.83C380.498 136.686 380.336 136.614 380.144 136.614H373.88C373.688 136.614 373.52 136.686 373.376 136.83C373.232 136.962 373.16 137.124 373.16 137.316V145.578H371.684ZM386.078 145.578C385.682 145.578 385.316 145.482 384.98 145.29C384.656 145.086 384.392 144.822 384.188 144.498C383.996 144.162 383.9 143.796 383.9 143.4V137.316C383.9 136.92 383.996 136.56 384.188 136.236C384.392 135.9 384.656 135.636 384.98 135.444C385.316 135.24 385.682 135.138 386.078 135.138H392.342C392.75 135.138 393.116 135.24 393.44 135.444C393.776 135.636 394.04 135.9 394.232 136.236C394.436 136.56 394.538 136.92 394.538 137.316V143.4C394.538 143.796 394.436 144.162 394.232 144.498C394.04 144.822 393.776 145.086 393.44 145.29C393.116 145.482 392.75 145.578 392.342 145.578H386.078ZM386.078 144.102H392.342C392.534 144.102 392.696 144.036 392.828 143.904C392.972 143.76 393.044 143.592 393.044 143.4V137.316C393.044 137.124 392.972 136.962 392.828 136.83C392.696 136.686 392.534 136.614 392.342 136.614H386.078C385.886 136.614 385.718 136.686 385.574 136.83C385.442 136.962 385.376 137.124 385.376 137.316V143.4C385.376 143.592 385.442 143.76 385.574 143.904C385.718 144.036 385.886 144.102 386.078 144.102ZM396.153 145.578V135.138H404.613C405.009 135.138 405.369 135.24 405.693 135.444C406.029 135.636 406.293 135.9 406.485 136.236C406.689 136.56 406.791 136.92 406.791 137.316V145.578H405.315V137.316C405.315 137.124 405.243 136.962 405.099 136.83C404.967 136.686 404.805 136.614 404.613 136.614H398.349C398.157 136.614 397.989 136.686 397.845 136.83C397.701 136.962 397.629 137.124 397.629 137.316V145.578H396.153ZM413.59 145.578V135.138H422.05C422.446 135.138 422.806 135.24 423.13 135.444C423.466 135.636 423.73 135.9 423.922 136.236C424.126 136.56 424.228 136.92 424.228 137.316V145.578H422.752V137.316C422.752 137.124 422.68 136.962 422.536 136.83C422.404 136.686 422.242 136.614 422.05 136.614H415.786C415.594 136.614 415.426 136.686 415.282 136.83C415.138 136.962 415.066 137.124 415.066 137.316V145.578H413.59ZM428.283 145.578C427.887 145.578 427.521 145.482 427.185 145.29C426.861 145.086 426.597 144.822 426.393 144.498C426.201 144.162 426.105 143.796 426.105 143.4V135.138H427.581V143.4C427.581 143.592 427.647 143.76 427.779 143.904C427.923 144.036 428.091 144.102 428.283 144.102H434.547C434.739 144.102 434.907 144.036 435.051 143.904C435.195 143.76 435.267 143.592 435.267 143.4V135.138H436.743V143.4C436.743 143.796 436.641 144.162 436.437 144.498C436.245 144.822 435.981 145.086 435.645 145.29C435.321 145.482 434.955 145.578 434.547 145.578H428.283ZM440.781 145.578C440.385 145.578 440.019 145.482 439.683 145.29C439.359 145.086 439.095 144.822 438.891 144.498C438.699 144.162 438.603 143.796 438.603 143.4V131.718H440.079V143.4C440.079 143.592 440.145 143.76 440.277 143.904C440.421 144.036 440.589 144.102 440.781 144.102H442.545V145.578H440.781ZM446.213 145.578C445.817 145.578 445.451 145.482 445.115 145.29C444.791 145.086 444.527 144.822 444.323 144.498C444.131 144.162 444.035 143.796 444.035 143.4V131.718H445.511V143.4C445.511 143.592 445.577 143.76 445.709 143.904C445.853 144.036 446.021 144.102 446.213 144.102H447.977V145.578H446.213ZM451.469 145.578C451.073 145.578 450.707 145.482 450.371 145.29C450.047 145.086 449.783 144.822 449.579 144.498C449.387 144.162 449.291 143.796 449.291 143.4V139.62H458.435V137.316C458.435 137.124 458.363 136.962 458.219 136.83C458.087 136.686 457.925 136.614 457.733 136.614H449.291V135.138H457.733C458.141 135.138 458.507 135.24 458.831 135.444C459.167 135.636 459.431 135.9 459.623 136.236C459.827 136.56 459.929 136.92 459.929 137.316V145.578H451.469ZM451.469 144.102H458.435V141.096H450.767V143.4C450.767 143.592 450.833 143.76 450.965 143.904C451.109 144.036 451.277 144.102 451.469 144.102ZM468.799 145.578C468.403 145.578 468.037 145.482 467.701 145.29C467.377 145.086 467.113 144.822 466.909 144.498C466.717 144.162 466.621 143.796 466.621 143.4V143.256H468.097V143.4C468.097 143.592 468.163 143.76 468.295 143.904C468.439 144.036 468.607 144.102 468.799 144.102H475.063C475.255 144.102 475.417 144.036 475.549 143.904C475.693 143.76 475.765 143.592 475.765 143.4V141.798C475.765 141.606 475.693 141.444 475.549 141.312C475.417 141.168 475.255 141.096 475.063 141.096H468.799C468.403 141.096 468.037 141 467.701 140.808C467.377 140.604 467.113 140.34 466.909 140.016C466.717 139.68 466.621 139.314 466.621 138.918V137.316C466.621 136.92 466.717 136.56 466.909 136.236C467.113 135.9 467.377 135.636 467.701 135.444C468.037 135.24 468.403 135.138 468.799 135.138H475.063C475.471 135.138 475.837 135.24 476.161 135.444C476.497 135.636 476.761 135.9 476.953 136.236C477.157 136.56 477.259 136.92 477.259 137.316V137.46H475.765V137.316C475.765 137.124 475.693 136.962 475.549 136.83C475.417 136.686 475.255 136.614 475.063 136.614H468.799C468.607 136.614 468.439 136.686 468.295 136.83C468.163 136.962 468.097 137.124 468.097 137.316V138.918C468.097 139.11 468.163 139.278 468.295 139.422C468.439 139.554 468.607 139.62 468.799 139.62H475.063C475.471 139.62 475.837 139.722 476.161 139.926C476.497 140.118 476.761 140.382 476.953 140.718C477.157 141.042 477.259 141.402 477.259 141.798V143.4C477.259 143.796 477.157 144.162 476.953 144.498C476.761 144.822 476.497 145.086 476.161 145.29C475.837 145.482 475.471 145.578 475.063 145.578H468.799ZM479.033 145.578V135.138H480.509V145.578H479.033ZM479.033 133.194V131.718H480.509V133.194H479.033ZM484.973 145.578C484.565 145.578 484.193 145.482 483.857 145.29C483.533 145.086 483.275 144.822 483.083 144.498C482.891 144.162 482.795 143.796 482.795 143.4V131.718H484.271V135.138H488.789V136.614H484.271V143.4C484.271 143.592 484.337 143.76 484.469 143.904C484.613 144.036 484.781 144.102 484.973 144.102H488.789V145.578H484.973ZM502.264 145.578L494.758 132.618H496.468L503.11 144.156L509.734 132.618H511.444L503.956 145.578H502.264ZM515.277 145.578C514.881 145.578 514.515 145.482 514.179 145.29C513.855 145.086 513.591 144.822 513.387 144.498C513.195 144.162 513.099 143.796 513.099 143.4V137.316C513.099 136.92 513.195 136.56 513.387 136.236C513.591 135.9 513.855 135.636 514.179 135.444C514.515 135.24 514.881 135.138 515.277 135.138H521.541C521.949 135.138 522.315 135.24 522.639 135.444C522.975 135.636 523.239 135.9 523.431 136.236C523.635 136.56 523.737 136.92 523.737 137.316V141.096H514.575V143.4C514.575 143.592 514.641 143.76 514.773 143.904C514.917 144.036 515.085 144.102 515.277 144.102H523.737V145.578H515.277ZM514.575 139.62H522.243V137.316C522.243 137.124 522.171 136.962 522.027 136.83C521.895 136.686 521.733 136.614 521.541 136.614H515.277C515.085 136.614 514.917 136.686 514.773 136.83C514.641 136.962 514.575 137.124 514.575 137.316V139.62ZM527.686 145.578C527.29 145.578 526.924 145.482 526.588 145.29C526.264 145.086 526 144.822 525.796 144.498C525.604 144.162 525.508 143.796 525.508 143.4V143.256H526.984V143.4C526.984 143.592 527.05 143.76 527.182 143.904C527.326 144.036 527.494 144.102 527.686 144.102H533.95C534.142 144.102 534.304 144.036 534.436 143.904C534.58 143.76 534.652 143.592 534.652 143.4V141.798C534.652 141.606 534.58 141.444 534.436 141.312C534.304 141.168 534.142 141.096 533.95 141.096H527.686C527.29 141.096 526.924 141 526.588 140.808C526.264 140.604 526 140.34 525.796 140.016C525.604 139.68 525.508 139.314 525.508 138.918V137.316C525.508 136.92 525.604 136.56 525.796 136.236C526 135.9 526.264 135.636 526.588 135.444C526.924 135.24 527.29 135.138 527.686 135.138H533.95C534.358 135.138 534.724 135.24 535.048 135.444C535.384 135.636 535.648 135.9 535.84 136.236C536.044 136.56 536.146 136.92 536.146 137.316V137.46H534.652V137.316C534.652 137.124 534.58 136.962 534.436 136.83C534.304 136.686 534.142 136.614 533.95 136.614H527.686C527.494 136.614 527.326 136.686 527.182 136.83C527.05 136.962 526.984 137.124 526.984 137.316V138.918C526.984 139.11 527.05 139.278 527.182 139.422C527.326 139.554 527.494 139.62 527.686 139.62H533.95C534.358 139.62 534.724 139.722 535.048 139.926C535.384 140.118 535.648 140.382 535.84 140.718C536.044 141.042 536.146 141.402 536.146 141.798V143.4C536.146 143.796 536.044 144.162 535.84 144.498C535.648 144.822 535.384 145.086 535.048 145.29C534.724 145.482 534.358 145.578 533.95 145.578H527.686ZM540.116 145.578C539.708 145.578 539.336 145.482 539 145.29C538.676 145.086 538.418 144.822 538.226 144.498C538.034 144.162 537.938 143.796 537.938 143.4V131.718H539.414V135.138H543.932V136.614H539.414V143.4C539.414 143.592 539.48 143.76 539.612 143.904C539.756 144.036 539.924 144.102 540.116 144.102H543.932V145.578H540.116ZM545.39 145.578V135.138H546.866V145.578H545.39ZM545.39 133.194V131.718H546.866V133.194H545.39ZM549.17 145.578V131.718H550.646V135.138H557.63C558.026 135.138 558.386 135.24 558.71 135.444C559.046 135.636 559.31 135.9 559.502 136.236C559.706 136.56 559.808 136.92 559.808 137.316V143.4C559.808 143.796 559.706 144.162 559.502 144.498C559.31 144.822 559.046 145.086 558.71 145.29C558.386 145.482 558.026 145.578 557.63 145.578H549.17ZM551.366 144.102H557.63C557.822 144.102 557.984 144.036 558.116 143.904C558.26 143.76 558.332 143.592 558.332 143.4V137.316C558.332 137.124 558.26 136.962 558.116 136.83C557.984 136.686 557.822 136.614 557.63 136.614H551.366C551.174 136.614 551.006 136.686 550.862 136.83C550.718 136.962 550.646 137.124 550.646 137.316V143.4C550.646 143.592 550.718 143.76 550.862 143.904C551.006 144.036 551.174 144.102 551.366 144.102ZM563.336 145.578C562.94 145.578 562.574 145.482 562.238 145.29C561.914 145.086 561.65 144.822 561.446 144.498C561.254 144.162 561.158 143.796 561.158 143.4V135.138H562.634V143.4C562.634 143.592 562.7 143.76 562.832 143.904C562.976 144.036 563.144 144.102 563.336 144.102H569.6C569.792 144.102 569.96 144.036 570.104 143.904C570.248 143.76 570.32 143.592 570.32 143.4V135.138H571.796V143.4C571.796 143.796 571.694 144.162 571.49 144.498C571.298 144.822 571.034 145.086 570.698 145.29C570.374 145.482 570.008 145.578 569.6 145.578H563.336ZM573.34 145.578V135.138H587.128C587.536 135.138 587.902 135.24 588.226 135.444C588.562 135.636 588.826 135.9 589.018 136.236C589.21 136.56 589.306 136.92 589.306 137.316V145.578H587.848V137.316C587.848 137.124 587.776 136.962 587.632 136.83C587.488 136.686 587.32 136.614 587.128 136.614H582.79C582.598 136.614 582.43 136.686 582.286 136.83C582.154 136.962 582.088 137.124 582.088 137.316V145.578H580.594V137.316C580.594 137.124 580.522 136.962 580.378 136.83C580.246 136.686 580.084 136.614 579.892 136.614H575.536C575.344 136.614 575.176 136.686 575.032 136.83C574.9 136.962 574.834 137.124 574.834 137.316V145.578H573.34ZM91.3631 173.578C90.9671 173.578 90.6011 173.482 90.2651 173.29C89.9411 173.086 89.6771 172.822 89.4731 172.498C89.2811 172.162 89.1851 171.796 89.1851 171.4V167.62H98.3291V165.316C98.3291 165.124 98.2571 164.962 98.1131 164.83C97.9811 164.686 97.8191 164.614 97.6271 164.614H89.1851V163.138H97.6271C98.0351 163.138 98.4011 163.24 98.7251 163.444C99.0611 163.636 99.3251 163.9 99.5171 164.236C99.7211 164.56 99.8231 164.92 99.8231 165.316V173.578H91.3631ZM91.3631 172.102H98.3291V169.096H90.6611V171.4C90.6611 171.592 90.7271 171.76 90.8591 171.904C91.0031 172.036 91.1711 172.102 91.3631 172.102ZM101.456 173.578V163.138H109.916C110.312 163.138 110.672 163.24 110.996 163.444C111.332 163.636 111.596 163.9 111.788 164.236C111.992 164.56 112.094 164.92 112.094 165.316V173.578H110.618V165.316C110.618 165.124 110.546 164.962 110.402 164.83C110.27 164.686 110.108 164.614 109.916 164.614H103.652C103.46 164.614 103.292 164.686 103.148 164.83C103.004 164.962 102.932 165.124 102.932 165.316V173.578H101.456ZM116.149 173.578C115.741 173.578 115.369 173.482 115.033 173.29C114.709 173.086 114.451 172.822 114.259 172.498C114.067 172.162 113.971 171.796 113.971 171.4V159.718H115.447V163.138H119.965V164.614H115.447V171.4C115.447 171.592 115.513 171.76 115.645 171.904C115.789 172.036 115.957 172.102 116.149 172.102H119.965V173.578H116.149ZM123.496 173.578C123.1 173.578 122.734 173.482 122.398 173.29C122.074 173.086 121.81 172.822 121.606 172.498C121.414 172.162 121.318 171.796 121.318 171.4V165.316C121.318 164.92 121.414 164.56 121.606 164.236C121.81 163.9 122.074 163.636 122.398 163.444C122.734 163.24 123.1 163.138 123.496 163.138H129.76C130.168 163.138 130.534 163.24 130.858 163.444C131.194 163.636 131.458 163.9 131.65 164.236C131.854 164.56 131.956 164.92 131.956 165.316V169.096H122.794V171.4C122.794 171.592 122.86 171.76 122.992 171.904C123.136 172.036 123.304 172.102 123.496 172.102H131.956V173.578H123.496ZM122.794 167.62H130.462V165.316C130.462 165.124 130.39 164.962 130.246 164.83C130.114 164.686 129.952 164.614 129.76 164.614H123.496C123.304 164.614 123.136 164.686 122.992 164.83C122.86 164.962 122.794 165.124 122.794 165.316V167.62ZM138.703 173.578V163.138H140.179V173.578H138.703ZM138.703 161.194V159.718H140.179V161.194H138.703ZM142.026 177.718V163.138H150.486C150.882 163.138 151.242 163.24 151.566 163.444C151.902 163.636 152.166 163.9 152.358 164.236C152.562 164.56 152.664 164.92 152.664 165.316V171.4C152.664 171.796 152.562 172.162 152.358 172.498C152.166 172.822 151.902 173.086 151.566 173.29C151.242 173.482 150.882 173.578 150.486 173.578H143.502V177.718H142.026ZM144.222 172.102H150.486C150.678 172.102 150.84 172.036 150.972 171.904C151.116 171.76 151.188 171.592 151.188 171.4V165.316C151.188 165.124 151.116 164.962 150.972 164.83C150.84 164.686 150.678 164.614 150.486 164.614H144.222C144.03 164.614 143.862 164.686 143.718 164.83C143.574 164.962 143.502 165.124 143.502 165.316V171.4C143.502 171.592 143.574 171.76 143.718 171.904C143.862 172.036 144.03 172.102 144.222 172.102ZM156.225 173.578C155.829 173.578 155.463 173.482 155.127 173.29C154.803 173.086 154.539 172.822 154.335 172.498C154.143 172.162 154.047 171.796 154.047 171.4V171.256H155.523V171.4C155.523 171.592 155.589 171.76 155.721 171.904C155.865 172.036 156.033 172.102 156.225 172.102H162.489C162.681 172.102 162.843 172.036 162.975 171.904C163.119 171.76 163.191 171.592 163.191 171.4V169.798C163.191 169.606 163.119 169.444 162.975 169.312C162.843 169.168 162.681 169.096 162.489 169.096H156.225C155.829 169.096 155.463 169 155.127 168.808C154.803 168.604 154.539 168.34 154.335 168.016C154.143 167.68 154.047 167.314 154.047 166.918V165.316C154.047 164.92 154.143 164.56 154.335 164.236C154.539 163.9 154.803 163.636 155.127 163.444C155.463 163.24 155.829 163.138 156.225 163.138H162.489C162.897 163.138 163.263 163.24 163.587 163.444C163.923 163.636 164.187 163.9 164.379 164.236C164.583 164.56 164.685 164.92 164.685 165.316V165.46H163.191V165.316C163.191 165.124 163.119 164.962 162.975 164.83C162.843 164.686 162.681 164.614 162.489 164.614H156.225C156.033 164.614 155.865 164.686 155.721 164.83C155.589 164.962 155.523 165.124 155.523 165.316V166.918C155.523 167.11 155.589 167.278 155.721 167.422C155.865 167.554 156.033 167.62 156.225 167.62H162.489C162.897 167.62 163.263 167.722 163.587 167.926C163.923 168.118 164.187 168.382 164.379 168.718C164.583 169.042 164.685 169.402 164.685 169.798V171.4C164.685 171.796 164.583 172.162 164.379 172.498C164.187 172.822 163.923 173.086 163.587 173.29C163.263 173.482 162.897 173.578 162.489 173.578H156.225ZM168.303 173.578C167.907 173.578 167.541 173.482 167.205 173.29C166.881 173.086 166.617 172.822 166.413 172.498C166.221 172.162 166.125 171.796 166.125 171.4V163.138H167.601V171.4C167.601 171.592 167.667 171.76 167.799 171.904C167.943 172.036 168.111 172.102 168.303 172.102H174.567C174.759 172.102 174.927 172.036 175.071 171.904C175.215 171.76 175.287 171.592 175.287 171.4V163.138H176.763V171.4C176.763 171.796 176.661 172.162 176.457 172.498C176.265 172.822 176.001 173.086 175.665 173.29C175.341 173.482 174.975 173.578 174.567 173.578H168.303ZM178.307 173.578V163.138H192.095C192.503 163.138 192.869 163.24 193.193 163.444C193.529 163.636 193.793 163.9 193.985 164.236C194.177 164.56 194.273 164.92 194.273 165.316V173.578H192.815V165.316C192.815 165.124 192.743 164.962 192.599 164.83C192.455 164.686 192.287 164.614 192.095 164.614H187.757C187.565 164.614 187.397 164.686 187.253 164.83C187.121 164.962 187.055 165.124 187.055 165.316V173.578H185.561V165.316C185.561 165.124 185.489 164.962 185.345 164.83C185.213 164.686 185.051 164.614 184.859 164.614H180.503C180.311 164.614 180.143 164.686 179.999 164.83C179.867 164.962 179.801 165.124 179.801 165.316V173.578H178.307ZM200.807 177.718V163.138H209.267C209.663 163.138 210.023 163.24 210.347 163.444C210.683 163.636 210.947 163.9 211.139 164.236C211.343 164.56 211.445 164.92 211.445 165.316V171.4C211.445 171.796 211.343 172.162 211.139 172.498C210.947 172.822 210.683 173.086 210.347 173.29C210.023 173.482 209.663 173.578 209.267 173.578H202.283V177.718H200.807ZM203.003 172.102H209.267C209.459 172.102 209.621 172.036 209.753 171.904C209.897 171.76 209.969 171.592 209.969 171.4V165.316C209.969 165.124 209.897 164.962 209.753 164.83C209.621 164.686 209.459 164.614 209.267 164.614H203.003C202.811 164.614 202.643 164.686 202.499 164.83C202.355 164.962 202.283 165.124 202.283 165.316V171.4C202.283 171.592 202.355 171.76 202.499 171.904C202.643 172.036 202.811 172.102 203.003 172.102ZM212.724 173.578V165.316C212.724 164.92 212.82 164.56 213.012 164.236C213.216 163.9 213.48 163.636 213.804 163.444C214.14 163.24 214.506 163.138 214.902 163.138H220.77V164.614H214.902C214.71 164.614 214.542 164.686 214.398 164.83C214.266 164.962 214.2 165.124 214.2 165.316V173.578H212.724ZM221.935 173.578V163.138H223.411V173.578H221.935ZM221.935 161.194V159.718H223.411V161.194H221.935ZM225.715 173.578V163.138H239.503C239.911 163.138 240.277 163.24 240.601 163.444C240.937 163.636 241.201 163.9 241.393 164.236C241.585 164.56 241.681 164.92 241.681 165.316V173.578H240.223V165.316C240.223 165.124 240.151 164.962 240.007 164.83C239.863 164.686 239.695 164.614 239.503 164.614H235.165C234.973 164.614 234.805 164.686 234.661 164.83C234.529 164.962 234.463 165.124 234.463 165.316V173.578H232.969V165.316C232.969 165.124 232.897 164.962 232.753 164.83C232.621 164.686 232.459 164.614 232.267 164.614H227.911C227.719 164.614 227.551 164.686 227.407 164.83C227.275 164.962 227.209 165.124 227.209 165.316V173.578H225.715ZM243.275 173.578V163.138H244.751V173.578H243.275ZM243.275 161.194V159.718H244.751V161.194H243.275ZM249.125 173.578C248.729 173.578 248.363 173.482 248.027 173.29C247.703 173.086 247.439 172.822 247.235 172.498C247.043 172.162 246.947 171.796 246.947 171.4V171.256H248.423V171.4C248.423 171.592 248.489 171.76 248.621 171.904C248.765 172.036 248.933 172.102 249.125 172.102H255.389C255.581 172.102 255.743 172.036 255.875 171.904C256.019 171.76 256.091 171.592 256.091 171.4V169.798C256.091 169.606 256.019 169.444 255.875 169.312C255.743 169.168 255.581 169.096 255.389 169.096H249.125C248.729 169.096 248.363 169 248.027 168.808C247.703 168.604 247.439 168.34 247.235 168.016C247.043 167.68 246.947 167.314 246.947 166.918V165.316C246.947 164.92 247.043 164.56 247.235 164.236C247.439 163.9 247.703 163.636 248.027 163.444C248.363 163.24 248.729 163.138 249.125 163.138H255.389C255.797 163.138 256.163 163.24 256.487 163.444C256.823 163.636 257.087 163.9 257.279 164.236C257.483 164.56 257.585 164.92 257.585 165.316V165.46H256.091V165.316C256.091 165.124 256.019 164.962 255.875 164.83C255.743 164.686 255.581 164.614 255.389 164.614H249.125C248.933 164.614 248.765 164.686 248.621 164.83C248.489 164.962 248.423 165.124 248.423 165.316V166.918C248.423 167.11 248.489 167.278 248.621 167.422C248.765 167.554 248.933 167.62 249.125 167.62H255.389C255.797 167.62 256.163 167.722 256.487 167.926C256.823 168.118 257.087 168.382 257.279 168.718C257.483 169.042 257.585 169.402 257.585 169.798V171.4C257.585 171.796 257.483 172.162 257.279 172.498C257.087 172.822 256.823 173.086 256.487 173.29C256.163 173.482 255.797 173.578 255.389 173.578H249.125ZM264.263 173.578V163.138H265.739V173.578H264.263ZM264.263 161.194V159.718H265.739V161.194H264.263ZM267.78 173.578V163.138H276.24C276.636 163.138 276.996 163.24 277.32 163.444C277.656 163.636 277.92 163.9 278.112 164.236C278.316 164.56 278.418 164.92 278.418 165.316V173.578H276.942V165.316C276.942 165.124 276.87 164.962 276.726 164.83C276.594 164.686 276.432 164.614 276.24 164.614H269.976C269.784 164.614 269.616 164.686 269.472 164.83C269.328 164.962 269.256 165.124 269.256 165.316V173.578H267.78ZM285.199 173.578V161.896C285.199 161.488 285.295 161.122 285.487 160.798C285.679 160.462 285.937 160.198 286.261 160.006C286.597 159.814 286.969 159.718 287.377 159.718H291.193V161.194H287.377C287.185 161.194 287.017 161.266 286.873 161.41C286.741 161.542 286.675 161.704 286.675 161.896V163.138H291.193V164.614H286.675V173.578H285.199ZM294.689 173.578C294.293 173.578 293.927 173.482 293.591 173.29C293.267 173.086 293.003 172.822 292.799 172.498C292.607 172.162 292.511 171.796 292.511 171.4V167.62H301.655V165.316C301.655 165.124 301.583 164.962 301.439 164.83C301.307 164.686 301.145 164.614 300.953 164.614H292.511V163.138H300.953C301.361 163.138 301.727 163.24 302.051 163.444C302.387 163.636 302.651 163.9 302.843 164.236C303.047 164.56 303.149 164.92 303.149 165.316V173.578H294.689ZM294.689 172.102H301.655V169.096H293.987V171.4C293.987 171.592 294.053 171.76 294.185 171.904C294.329 172.036 294.497 172.102 294.689 172.102ZM307.205 173.578C306.809 173.578 306.443 173.482 306.107 173.29C305.783 173.086 305.519 172.822 305.315 172.498C305.123 172.162 305.027 171.796 305.027 171.4V163.138H306.503V171.4C306.503 171.592 306.569 171.76 306.701 171.904C306.845 172.036 307.013 172.102 307.205 172.102H313.469C313.661 172.102 313.829 172.036 313.973 171.904C314.117 171.76 314.189 171.592 314.189 171.4V163.138H315.665V171.4C315.665 171.796 315.563 172.162 315.359 172.498C315.167 172.822 314.903 173.086 314.567 173.29C314.243 173.482 313.877 173.578 313.469 173.578H307.205ZM319.333 173.578C318.937 173.578 318.571 173.482 318.235 173.29C317.911 173.086 317.647 172.822 317.443 172.498C317.251 172.162 317.155 171.796 317.155 171.4V165.316C317.155 164.92 317.251 164.56 317.443 164.236C317.647 163.9 317.911 163.636 318.235 163.444C318.571 163.24 318.937 163.138 319.333 163.138H327.757V164.614H319.333C319.141 164.614 318.973 164.686 318.829 164.83C318.697 164.962 318.631 165.124 318.631 165.316V171.4C318.631 171.592 318.697 171.76 318.829 171.904C318.973 172.036 319.141 172.102 319.333 172.102H327.793V173.578H319.333ZM329.689 173.578V163.138H331.165V173.578H329.689ZM329.689 161.194V159.718H331.165V161.194H329.689ZM333.469 173.578V159.718H334.945V163.138H341.929C342.325 163.138 342.685 163.24 343.009 163.444C343.345 163.636 343.609 163.9 343.801 164.236C344.005 164.56 344.107 164.92 344.107 165.316V171.4C344.107 171.796 344.005 172.162 343.801 172.498C343.609 172.822 343.345 173.086 343.009 173.29C342.685 173.482 342.325 173.578 341.929 173.578H333.469ZM335.665 172.102H341.929C342.121 172.102 342.283 172.036 342.415 171.904C342.559 171.76 342.631 171.592 342.631 171.4V165.316C342.631 165.124 342.559 164.962 342.415 164.83C342.283 164.686 342.121 164.614 341.929 164.614H335.665C335.473 164.614 335.305 164.686 335.161 164.83C335.017 164.962 334.945 165.124 334.945 165.316V171.4C334.945 171.592 335.017 171.76 335.161 171.904C335.305 172.036 335.473 172.102 335.665 172.102ZM347.635 173.578C347.239 173.578 346.873 173.482 346.537 173.29C346.213 173.086 345.949 172.822 345.745 172.498C345.553 172.162 345.457 171.796 345.457 171.4V163.138H346.933V171.4C346.933 171.592 346.999 171.76 347.131 171.904C347.275 172.036 347.443 172.102 347.635 172.102H353.899C354.091 172.102 354.259 172.036 354.403 171.904C354.547 171.76 354.619 171.592 354.619 171.4V163.138H356.095V171.4C356.095 171.796 355.993 172.162 355.789 172.498C355.597 172.822 355.333 173.086 354.997 173.29C354.673 173.482 354.307 173.578 353.899 173.578H347.635ZM359.797 173.578C359.401 173.578 359.035 173.482 358.699 173.29C358.375 173.086 358.111 172.822 357.907 172.498C357.715 172.162 357.619 171.796 357.619 171.4V171.256H359.095V171.4C359.095 171.592 359.161 171.76 359.293 171.904C359.437 172.036 359.605 172.102 359.797 172.102H366.061C366.253 172.102 366.415 172.036 366.547 171.904C366.691 171.76 366.763 171.592 366.763 171.4V169.798C366.763 169.606 366.691 169.444 366.547 169.312C366.415 169.168 366.253 169.096 366.061 169.096H359.797C359.401 169.096 359.035 169 358.699 168.808C358.375 168.604 358.111 168.34 357.907 168.016C357.715 167.68 357.619 167.314 357.619 166.918V165.316C357.619 164.92 357.715 164.56 357.907 164.236C358.111 163.9 358.375 163.636 358.699 163.444C359.035 163.24 359.401 163.138 359.797 163.138H366.061C366.469 163.138 366.835 163.24 367.159 163.444C367.495 163.636 367.759 163.9 367.951 164.236C368.155 164.56 368.257 164.92 368.257 165.316V165.46H366.763V165.316C366.763 165.124 366.691 164.962 366.547 164.83C366.415 164.686 366.253 164.614 366.061 164.614H359.797C359.605 164.614 359.437 164.686 359.293 164.83C359.161 164.962 359.095 165.124 359.095 165.316V166.918C359.095 167.11 359.161 167.278 359.293 167.422C359.437 167.554 359.605 167.62 359.797 167.62H366.061C366.469 167.62 366.835 167.722 367.159 167.926C367.495 168.118 367.759 168.382 367.951 168.718C368.155 169.042 368.257 169.402 368.257 169.798V171.4C368.257 171.796 368.155 172.162 367.951 172.498C367.759 172.822 367.495 173.086 367.159 173.29C366.835 173.482 366.469 173.578 366.061 173.578H359.797ZM377.095 173.578C376.699 173.578 376.333 173.482 375.997 173.29C375.673 173.086 375.409 172.822 375.205 172.498C375.013 172.162 374.917 171.796 374.917 171.4V165.316C374.917 164.92 375.013 164.56 375.205 164.236C375.409 163.9 375.673 163.636 375.997 163.444C376.333 163.24 376.699 163.138 377.095 163.138H383.359C383.767 163.138 384.133 163.24 384.457 163.444C384.793 163.636 385.057 163.9 385.249 164.236C385.453 164.56 385.555 164.92 385.555 165.316V171.4C385.555 171.796 385.453 172.162 385.249 172.498C385.057 172.822 384.793 173.086 384.457 173.29C384.133 173.482 383.767 173.578 383.359 173.578H377.095ZM377.095 172.102H383.359C383.551 172.102 383.713 172.036 383.845 171.904C383.989 171.76 384.061 171.592 384.061 171.4V165.316C384.061 165.124 383.989 164.962 383.845 164.83C383.713 164.686 383.551 164.614 383.359 164.614H377.095C376.903 164.614 376.735 164.686 376.591 164.83C376.459 164.962 376.393 165.124 376.393 165.316V171.4C376.393 171.592 376.459 171.76 376.591 171.904C376.735 172.036 376.903 172.102 377.095 172.102ZM387.222 173.578V165.316C387.222 164.92 387.318 164.56 387.51 164.236C387.714 163.9 387.978 163.636 388.302 163.444C388.638 163.24 389.004 163.138 389.4 163.138H395.268V164.614H389.4C389.208 164.614 389.04 164.686 388.896 164.83C388.764 164.962 388.698 165.124 388.698 165.316V173.578H387.222ZM398.593 173.578C398.197 173.578 397.831 173.482 397.495 173.29C397.171 173.086 396.907 172.822 396.703 172.498C396.511 172.162 396.415 171.796 396.415 171.4V165.316C396.415 164.92 396.511 164.56 396.703 164.236C396.907 163.9 397.171 163.636 397.495 163.444C397.831 163.24 398.197 163.138 398.593 163.138H407.017V164.614H398.593C398.401 164.614 398.233 164.686 398.089 164.83C397.957 164.962 397.891 165.124 397.891 165.316V171.4C397.891 171.592 397.957 171.76 398.089 171.904C398.233 172.036 398.401 172.102 398.593 172.102H407.053V173.578H398.593ZM408.949 173.578V163.138H410.425V173.578H408.949ZM408.949 161.194V159.718H410.425V161.194H408.949Z" fill="#DFDFDF" fill-opacity="0.8"/>
<path d="M90.0411 68.5781V45.5381H93.5931L103.161 56.9301L112.729 45.5381H116.281V68.5781H113.689V48.4821L103.161 60.9941L92.6331 48.4821V68.5781H90.0411ZM123.505 68.5781C122.801 68.5781 122.15 68.4075 121.553 68.0661C120.977 67.7035 120.507 67.2341 120.145 66.6581C119.803 66.0608 119.633 65.4101 119.633 64.7061V50.0181H122.257V64.7061C122.257 65.0475 122.374 65.3461 122.609 65.6021C122.865 65.8368 123.163 65.9541 123.505 65.9541H134.641C134.982 65.9541 135.281 65.8368 135.537 65.6021C135.793 65.3461 135.921 65.0475 135.921 64.7061V50.0181H138.545V64.7061C138.545 65.4101 138.363 66.0608 138.001 66.6581C137.659 67.2341 137.19 67.7035 136.593 68.0661C136.017 68.4075 135.366 68.5781 134.641 68.5781H123.505ZM145.723 68.5781C145.019 68.5781 144.368 68.4075 143.771 68.0661C143.195 67.7035 142.725 67.2341 142.363 66.6581C142.021 66.0608 141.851 65.4101 141.851 64.7061V43.9381H144.475V64.7061C144.475 65.0475 144.592 65.3461 144.827 65.6021C145.083 65.8368 145.381 65.9541 145.723 65.9541H148.859V68.5781H145.723ZM155.411 68.5781C154.686 68.5781 154.024 68.4075 153.427 68.0661C152.851 67.7035 152.392 67.2341 152.051 66.6581C151.71 66.0608 151.539 65.4101 151.539 64.7061V43.9381H154.163V50.0181H162.195V52.6421H154.163V64.7061C154.163 65.0475 154.28 65.3461 154.515 65.6021C154.771 65.8368 155.07 65.9541 155.411 65.9541H162.195V68.5781H155.411ZM164.788 68.5781V50.0181H167.412V68.5781H164.788ZM164.788 46.5621V43.9381H167.412V46.5621H164.788ZM170.696 75.9381V50.0181H185.736C186.44 50.0181 187.08 50.1995 187.656 50.5621C188.253 50.9035 188.723 51.3728 189.064 51.9701C189.427 52.5461 189.608 53.1861 189.608 53.8901V64.7061C189.608 65.4101 189.427 66.0608 189.064 66.6581C188.723 67.2341 188.253 67.7035 187.656 68.0661C187.08 68.4075 186.44 68.5781 185.736 68.5781H173.32V75.9381H170.696ZM174.6 65.9541H185.736C186.077 65.9541 186.365 65.8368 186.6 65.6021C186.856 65.3461 186.984 65.0475 186.984 64.7061V53.8901C186.984 53.5488 186.856 53.2608 186.6 53.0261C186.365 52.7701 186.077 52.6421 185.736 52.6421H174.6C174.259 52.6421 173.96 52.7701 173.704 53.0261C173.448 53.2608 173.32 53.5488 173.32 53.8901V64.7061C173.32 65.0475 173.448 65.3461 173.704 65.6021C173.96 65.8368 174.259 65.9541 174.6 65.9541ZM195.754 68.5781C195.05 68.5781 194.399 68.4075 193.802 68.0661C193.226 67.7035 192.757 67.2341 192.394 66.6581C192.053 66.0608 191.882 65.4101 191.882 64.7061V43.9381H194.506V64.7061C194.506 65.0475 194.623 65.3461 194.858 65.6021C195.114 65.8368 195.413 65.9541 195.754 65.9541H198.89V68.5781H195.754ZM205.098 68.5781C204.394 68.5781 203.743 68.4075 203.146 68.0661C202.57 67.7035 202.1 67.2341 201.738 66.6581C201.396 66.0608 201.226 65.4101 201.226 64.7061V57.9861H217.482V53.8901C217.482 53.5488 217.354 53.2608 217.098 53.0261C216.863 52.7701 216.575 52.6421 216.234 52.6421H201.226V50.0181H216.234C216.959 50.0181 217.61 50.1995 218.186 50.5621C218.783 50.9035 219.252 51.3728 219.594 51.9701C219.956 52.5461 220.138 53.1861 220.138 53.8901V68.5781H205.098ZM205.098 65.9541H217.482V60.6101H203.85V64.7061C203.85 65.0475 203.967 65.3461 204.202 65.6021C204.458 65.8368 204.756 65.9541 205.098 65.9541ZM226.548 75.9381V73.2821H238.132C238.474 73.2821 238.762 73.1541 238.996 72.8981C239.252 72.6635 239.38 72.3755 239.38 72.0341V68.5781H226.996C226.292 68.5781 225.642 68.4075 225.044 68.0661C224.468 67.7035 223.999 67.2341 223.636 66.6581C223.295 66.0608 223.124 65.4101 223.124 64.7061V50.0821H225.748V64.7061C225.748 65.0475 225.866 65.3461 226.1 65.6021C226.356 65.8368 226.655 65.9541 226.996 65.9541H238.132C238.474 65.9541 238.762 65.8368 238.996 65.6021C239.252 65.3461 239.38 65.0475 239.38 64.7061V50.0821H242.004V72.0341C242.004 72.7595 241.834 73.4101 241.492 73.9861C241.151 74.5835 240.682 75.0528 240.084 75.3941C239.508 75.7568 238.858 75.9381 238.132 75.9381H226.548ZM248.566 68.5781C247.862 68.5781 247.211 68.4075 246.614 68.0661C246.038 67.7035 245.568 67.2341 245.206 66.6581C244.864 66.0608 244.694 65.4101 244.694 64.7061V53.8901C244.694 53.1861 244.864 52.5461 245.206 51.9701C245.568 51.3728 246.038 50.9035 246.614 50.5621C247.211 50.1995 247.862 50.0181 248.566 50.0181H259.702C260.427 50.0181 261.078 50.1995 261.654 50.5621C262.251 50.9035 262.72 51.3728 263.062 51.9701C263.424 52.5461 263.606 53.1861 263.606 53.8901V60.6101H247.318V64.7061C247.318 65.0475 247.435 65.3461 247.67 65.6021C247.926 65.8368 248.224 65.9541 248.566 65.9541H263.606V68.5781H248.566ZM247.318 57.9861H260.95V53.8901C260.95 53.5488 260.822 53.2608 260.566 53.0261C260.331 52.7701 260.043 52.6421 259.702 52.6421H248.566C248.224 52.6421 247.926 52.7701 247.67 53.0261C247.435 53.2608 247.318 53.5488 247.318 53.8901V57.9861ZM266.726 68.5781V53.8901C266.726 53.1861 266.896 52.5461 267.238 51.9701C267.6 51.3728 268.07 50.9035 268.646 50.5621C269.243 50.1995 269.894 50.0181 270.598 50.0181H281.03V52.6421H270.598C270.256 52.6421 269.958 52.7701 269.702 53.0261C269.467 53.2608 269.35 53.5488 269.35 53.8901V68.5781H266.726ZM295.723 68.5781C295.019 68.5781 294.369 68.4075 293.771 68.0661C293.195 67.7248 292.737 67.2661 292.395 66.6901C292.054 66.0928 291.883 65.4421 291.883 64.7381V49.3781C291.883 48.6741 292.054 48.0341 292.395 47.4581C292.737 46.8608 293.195 46.3915 293.771 46.0501C294.369 45.7088 295.019 45.5381 295.723 45.5381H311.083C311.787 45.5381 312.427 45.7088 313.003 46.0501C313.601 46.3915 314.07 46.8608 314.411 47.4581C314.753 48.0341 314.923 48.6741 314.923 49.3781V64.7381C314.923 65.4421 314.753 66.0928 314.411 66.6901C314.07 67.2661 313.601 67.7248 313.003 68.0661C312.427 68.4075 311.787 68.5781 311.083 68.5781H295.723ZM295.723 65.9861H311.083C311.425 65.9861 311.713 65.8688 311.947 65.6341C312.203 65.3781 312.331 65.0795 312.331 64.7381V49.3781C312.331 49.0368 312.203 48.7488 311.947 48.5141C311.713 48.2581 311.425 48.1301 311.083 48.1301H295.723C295.382 48.1301 295.083 48.2581 294.827 48.5141C294.593 48.7488 294.475 49.0368 294.475 49.3781V64.7381C294.475 65.0795 294.593 65.3781 294.827 65.6341C295.083 65.8688 295.382 65.9861 295.723 65.9861ZM318.383 68.5781V50.0181H333.423C334.127 50.0181 334.767 50.1995 335.343 50.5621C335.941 50.9035 336.41 51.3728 336.751 51.9701C337.114 52.5461 337.295 53.1861 337.295 53.8901V68.5781H334.671V53.8901C334.671 53.5488 334.543 53.2608 334.287 53.0261C334.053 52.7701 333.765 52.6421 333.423 52.6421H322.287C321.946 52.6421 321.647 52.7701 321.391 53.0261C321.135 53.2608 321.007 53.5488 321.007 53.8901V68.5781H318.383ZM358.535 68.5781V48.1301H348.295V45.5381H371.335V48.1301H361.127V68.5781H358.535ZM373.665 68.5781V43.9381H376.289V50.0181H388.705C389.409 50.0181 390.049 50.1995 390.625 50.5621C391.222 50.9035 391.691 51.3728 392.033 51.9701C392.395 52.5461 392.577 53.1861 392.577 53.8901V68.5781H389.953V53.8901C389.953 53.5488 389.825 53.2608 389.569 53.0261C389.334 52.7701 389.046 52.6421 388.705 52.6421H377.569C377.227 52.6421 376.929 52.7701 376.673 53.0261C376.417 53.2608 376.289 53.5488 376.289 53.8901V68.5781H373.665ZM398.816 68.5781C398.112 68.5781 397.461 68.4075 396.864 68.0661C396.288 67.7035 395.818 67.2341 395.456 66.6581C395.114 66.0608 394.944 65.4101 394.944 64.7061V53.8901C394.944 53.1861 395.114 52.5461 395.456 51.9701C395.818 51.3728 396.288 50.9035 396.864 50.5621C397.461 50.1995 398.112 50.0181 398.816 50.0181H409.952C410.677 50.0181 411.328 50.1995 411.904 50.5621C412.501 50.9035 412.97 51.3728 413.312 51.9701C413.674 52.5461 413.856 53.1861 413.856 53.8901V60.6101H397.568V64.7061C397.568 65.0475 397.685 65.3461 397.92 65.6021C398.176 65.8368 398.474 65.9541 398.816 65.9541H413.856V68.5781H398.816ZM397.568 57.9861H411.2V53.8901C411.2 53.5488 411.072 53.2608 410.816 53.0261C410.581 52.7701 410.293 52.6421 409.952 52.6421H398.816C398.474 52.6421 398.176 52.7701 397.92 53.0261C397.685 53.2608 397.568 53.5488 397.568 53.8901V57.9861ZM429.819 68.5781C429.115 68.5781 428.464 68.4075 427.867 68.0661C427.291 67.7248 426.832 67.2661 426.491 66.6901C426.149 66.0928 425.979 65.4421 425.979 64.7381V49.3781C425.979 48.6741 426.149 48.0341 426.491 47.4581C426.832 46.8608 427.291 46.3915 427.867 46.0501C428.464 45.7088 429.115 45.5381 429.819 45.5381H445.179C445.883 45.5381 446.523 45.7088 447.099 46.0501C447.696 46.3915 448.165 46.8608 448.507 47.4581C448.848 48.0341 449.019 48.6741 449.019 49.3781V50.3061H446.427V49.3781C446.427 49.0368 446.299 48.7488 446.043 48.5141C445.808 48.2581 445.52 48.1301 445.179 48.1301H429.819C429.477 48.1301 429.179 48.2581 428.923 48.5141C428.688 48.7488 428.571 49.0368 428.571 49.3781V64.7381C428.571 65.0795 428.688 65.3781 428.923 65.6341C429.179 65.8688 429.477 65.9861 429.819 65.9861H445.179C445.52 65.9861 445.808 65.8688 446.043 65.6341C446.299 65.3781 446.427 65.0795 446.427 64.7381V59.0421H440.731V56.4181H449.019V64.7381C449.019 65.4421 448.848 66.0928 448.507 66.6901C448.165 67.2661 447.696 67.7248 447.099 68.0661C446.523 68.4075 445.883 68.5781 445.179 68.5781H429.819ZM456.253 68.5781C455.549 68.5781 454.898 68.4075 454.301 68.0661C453.725 67.7035 453.256 67.2341 452.893 66.6581C452.552 66.0608 452.381 65.4101 452.381 64.7061V53.8901C452.381 53.1861 452.552 52.5461 452.893 51.9701C453.256 51.3728 453.725 50.9035 454.301 50.5621C454.898 50.1995 455.549 50.0181 456.253 50.0181H467.389C468.114 50.0181 468.765 50.1995 469.341 50.5621C469.938 50.9035 470.408 51.3728 470.749 51.9701C471.112 52.5461 471.293 53.1861 471.293 53.8901V64.7061C471.293 65.4101 471.112 66.0608 470.749 66.6581C470.408 67.2341 469.938 67.7035 469.341 68.0661C468.765 68.4075 468.114 68.5781 467.389 68.5781H456.253ZM456.253 65.9541H467.389C467.73 65.9541 468.018 65.8368 468.253 65.6021C468.509 65.3461 468.637 65.0475 468.637 64.7061V53.8901C468.637 53.5488 468.509 53.2608 468.253 53.0261C468.018 52.7701 467.73 52.6421 467.389 52.6421H456.253C455.912 52.6421 455.613 52.7701 455.357 53.0261C455.122 53.2608 455.005 53.5488 455.005 53.8901V64.7061C455.005 65.0475 455.122 65.3461 455.357 65.6021C455.613 65.8368 455.912 65.9541 456.253 65.9541Z" fill="white"/>
<defs>
<clipPath id="clip0_1_253">
<rect width="31.794" height="29" fill="white" transform="translate(38.9136 35.5781)"/>
</clipPath>
</defs>
</svg>
